<?xml version="1.0" encoding="utf-8"?>
<!-- Generator: Adobe Illustrator 23.0.0, SVG Export Plug-In . SVG Version: 6.00 Build 0)  -->
<svg version="1.1" id="Camada_1" xmlns="http://www.w3.org/2000/svg" xmlns:xlink="http://www.w3.org/1999/xlink" x="0px" y="0px"
	 viewBox="0 0 1000 1000" style="enable-background:new 0 0 1000 1000;" xml:space="preserve">
<style type="text/css">
	.st0{fill:#FFFFFF;}
</style>
<path class="st0" d="M933.3,1c6.4,0,12.9,0,19.3,0c19.7,6.1,32.4,19.1,38.6,38.6c0,6.4,0,12.9,0,19.3c-4.6,14.5-14.6,25.2-25.1,35.7
	c-131,130.8-261.9,261.8-392.8,392.7c-2.6,2.6-5.2,5.4-8.8,9.2c3.6,3.1,6.7,5.5,9.4,8.2C704.5,635.1,834.9,765.6,965.5,896
	c10.8,10.7,21,21.6,25.8,36.4c0,6.4,0,12.9,0,19.3c-5.3,8.7-9.1,18.8-16.1,25.7c-19.7,19.3-48.3,17-69.7-4.4
	C772.1,839.5,638.7,706.1,505.4,572.6c-2.7-2.7-4.3-6.4-6.5-9.6c-1.5,0-3,0.1-4.4,0.1c-2.2,3.2-3.9,6.8-6.5,9.5
	c-126.3,126.4-252.7,252.8-379,379.2c-8.4,8.4-16.6,17.1-25.4,25.2C57,1001.1,17,991.2,4.6,957.7c-0.8-2-1.8-4-2.7-6
	c0-6.4,0-12.9,0-19.3c4.7-14.5,14.6-25.2,25.2-35.7C158.1,765.9,289,634.9,419.9,504c2.6-2.6,5.2-5.4,8.8-9.2
	c-3.9-3.4-7.2-5.9-10.1-8.9C287.9,355.3,157.2,224.5,26.4,94C16.1,83.6,6.5,73.2,1.9,58.9c0-6.4,0-12.9,0-19.3C8.1,20,21,7.1,40.6,1
	C47,1,53.5,1,59.9,1c14.2,4.5,24.7,14.1,35,24.5C226,156.7,357.2,287.8,488.2,419c2.6,2.6,3.9,6.7,5.8,10.1c1.5-0.6,3-1.1,4.5-1.7
	c2.6-3.3,4.9-6.9,7.8-9.8C637,286.9,767.7,156.3,898.3,25.4C908.6,15.1,919.1,5.5,933.3,1z"/>
<path class="st0" d="M991.3,39.6C985.1,20.1,972.4,7,952.6,1c12.9,0,25.8,0,38.6,0C991.3,13.9,991.3,26.7,991.3,39.6z"/>
<path class="st0" d="M40.6,1C21,7.1,8.1,20,1.9,39.6c0-12.9,0-25.8,0-38.6C14.8,1,27.7,1,40.6,1z"/>
</svg>
